{"title":"Glee The 3D Concert Movie 2011 DVDRip XViD AC3 5.1 - SiC.","uid":6887342,"size":1571256776,"categoryP":"video","categoryS":"movies","magnet":"?xt=urn:btih:48614aa040d1d738de57bcd1735ed62401ba40e7&amp;dn=Glee+The+3D+Concert+Movie+2011+DVDRip+XViD+AC3+5.1+-+SiC.&amp;tr=udp%3A%2F%2Ftracker.openbittorrent.com%3A80&amp;tr=udp%3A%2F%2Fopen.demonii.com%3A1337&amp;tr=udp%3A%2F%2Ftracker.coppersurfer.tk%3A6969&amp;tr=udp%3A%2F%2Fexodus.desync.com%3A6969","seeders":0,"leechers":2,"uploader":"moviesp2p","files":3,"time":1323877266,"description":"MediaInfo:\nFormat                           : AVI\nFormat/Info                      : Audio Video Interleave\nFile size                        : 1.45 GiB\nDuration                         : 1h 23mn\nOverall bit rate                 : 2 480 Kbps\n\nVideo\nID                               : 0\nFormat                           : MPEG-4 Visual\nFormat profile                   : Advanced Simple@L5\nFormat settings, BVOP            : 2\nFormat settings, QPel            : Yes\nFormat settings, GMC             : No warppoints\nFormat settings, Matrix          : Default (H.263)\nCodec ID                         : XVID\nCodec ID/Hint                    : XviD\nDuration                         : 1h 23mn\nBit rate                         : 2 023 Kbps\nWidth                            : 720 pixels\nHeight                           : 480 pixels\nDisplay aspect ratio             : 3:2\nFrame rate                       : 29.970 fps\nStandard                         : NTSC\nColor space                      : YUV\nChroma subsampling               : 4:2:0\nBit depth                        : 8 bits\nScan type                        : Progressive\nCompression mode                 : Lossy\nBits/(Pixel*Frame)               : 0.195\nStream size                      : 1.19 GiB (82%)\nWriting library                  : XviD 1.2.1 (UTC 2008-12-04)\n\nAudio\nID                               : 1\nFormat                           : AC-3\nFormat/Info                      : Audio Coding 3\nMode extension                   : CM (complete main)\nCodec ID                         : 2000\nDuration                         : 1h 23mn\nBit rate mode                    : Constant\nBit rate                         : 448 Kbps\nChannel(s)                       : 6 channels\nChannel positions                : Front: L C R, Side: L R, LFE\nSampling rate                    : 48.0 KHz\nBit depth                        : 16 bits\nCompression mode                 : Lossy\nStream size                      : 269 MiB (18%)\nAlignment                        : Aligned on interleaves\nInterleave, duration             : 64 ms (1.92 video frames)\nInterleave, preload duration     : 192 ms\nTitle                            : VTS_01_1 T80 3_2ch 448Kbps DELAY 0ms_new","torrent":{"xt":"urn:btih:48614aa040d1d738de57bcd1735ed62401ba40e7","amp;dn":"Glee+The+3D+Concert+Movie+2011+DVDRip+XViD+AC3+5.1+-+SiC.","amp;tr":["udp%3A%2F%2Ftracker.openbittorrent.com%3A80","udp%3A%2F%2Fopen.demonii.com%3A1337","udp%3A%2F%2Ftracker.coppersurfer.tk%3A6969","udp%3A%2F%2Fexodus.desync.com%3A6969"],"infoHash":"48614aa040d1d738de57bcd1735ed62401ba40e7","infoHashBuffer":{"type":"Buffer","data":[72,97,74,160,64,209,215,56,222,87,188,209,115,94,214,36,1,186,64,231]},"announce":[],"urlList":[]}}